<?xml version="1.0" standalone="no"?>
<!DOCTYPE svg PUBLIC "-//W3C//DTD SVG 20010904//EN"
 "http://www.w3.org/TR/2001/REC-SVG-20010904/DTD/svg10.dtd">
<svg version="1.0" xmlns="http://www.w3.org/2000/svg"
 width="450.000000pt" height="100.000000pt" viewBox="0 0 450.000000 100.000000"
 preserveAspectRatio="xMidYMid meet">

<g transform="translate(0.000000,100.000000) scale(0.100000,-0.100000)"
fill="#000000" stroke="none">
<path d="M3295 778 c-37 -32 -37 -74 -1 -105 34 -29 65 -29 100 -2 48 38 25
112 -40 125 -24 4 -37 0 -59 -18z"/>
<path d="M3720 755 c0 -33 4 -45 15 -45 12 0 15 -13 15 -60 0 -33 -2 -60 -4
-60 -2 0 -20 7 -40 15 -74 31 -164 -6 -203 -85 -55 -109 -3 -248 106 -281 38
-11 50 -11 90 4 29 10 49 13 55 7 6 -6 47 -10 93 -10 l83 0 0 45 c0 33 -4 45
-15 45 -13 0 -15 33 -15 235 l0 235 -90 0 -90 0 0 -45z m16 -270 c21 -51 18
-99 -9 -131 -42 -49 -87 -8 -87 79 0 85 67 121 96 52z"/>
<path d="M2808 750 c-71 -38 -101 -107 -79 -180 17 -57 68 -95 165 -126 104
-32 125 -46 110 -71 -25 -40 -139 -23 -150 23 -6 22 -11 24 -75 24 l-69 0 0
-90 0 -90 65 0 c63 0 65 1 65 25 0 31 1 31 46 0 44 -30 90 -39 160 -32 98 10
154 64 154 147 0 83 -46 125 -183 170 -38 12 -80 32 -94 44 -22 19 -24 25 -14
44 9 17 21 22 54 22 46 0 80 -22 92 -60 6 -17 15 -20 71 -20 l64 0 0 90 0 91
-62 -3 c-60 -3 -63 -4 -68 -32 l-5 -28 -20 22 c-46 52 -158 66 -227 30z"/>
<path d="M90 715 c0 -38 3 -45 20 -45 19 0 20 -7 20 -170 0 -163 -1 -170 -20
-170 -17 0 -20 -7 -20 -45 l0 -45 100 0 100 0 0 45 c0 40 -2 45 -23 45 -23 0
-23 0 -23 150 -1 145 8 196 18 107 3 -23 25 -111 48 -195 l44 -152 76 0 77 0
43 153 c23 83 45 169 48 190 11 86 22 38 22 -102 0 -144 -1 -151 -20 -151 -17
0 -20 -7 -20 -45 l0 -45 115 0 115 0 0 45 c0 38 -3 45 -20 45 -19 0 -20 7 -20
170 0 163 1 170 20 170 17 0 20 7 20 45 l0 45 -143 0 -142 0 -34 -135 c-19
-74 -37 -135 -40 -135 -4 0 -17 39 -30 88 -13 48 -30 108 -38 135 l-14 47
-139 0 -140 0 0 -45z"/>
<path d="M913 609 c-29 -11 -53 -26 -53 -33 0 -14 20 -76 25 -76 1 0 19 7 38
15 74 31 147 13 147 -36 0 -16 -3 -18 -19 -9 -28 14 -96 12 -136 -4 -65 -27
-93 -112 -60 -176 32 -63 146 -85 205 -42 26 20 31 21 36 7 5 -12 23 -15 85
-15 l79 0 0 45 c0 38 -3 45 -19 45 -17 0 -19 9 -23 99 -3 111 -16 139 -78 175
-49 29 -161 32 -227 5z m141 -222 c24 -17 17 -48 -13 -64 -32 -15 -61 0 -61
32 0 38 41 56 74 32z"/>
<path d="M2336 610 c-27 -10 -53 -23 -58 -28 -9 -9 14 -82 25 -82 3 0 21 7 40
15 70 29 137 14 137 -31 0 -21 -3 -23 -19 -14 -32 16 -103 12 -138 -10 -72
-43 -90 -135 -38 -190 52 -54 145 -60 198 -12 17 15 19 15 28 -1 8 -14 25 -17
89 -17 l80 0 0 45 c0 41 -2 45 -25 45 -25 0 -25 0 -25 95 0 66 -5 105 -15 125
-35 68 -182 100 -279 60z m146 -233 c19 -30 -5 -59 -48 -59 -42 0 -57 37 -28
67 18 18 63 13 76 -8z"/>
<path d="M1506 595 c-44 -30 -42 -30 -49 -5 -5 18 -14 20 -80 20 l-75 0 -4
-45 c-2 -31 1 -45 9 -45 7 0 13 -12 13 -27 0 -16 3 -58 7 -95 5 -59 4 -68 -11
-68 -12 0 -16 -10 -16 -45 l0 -45 110 0 110 0 0 45 c0 41 -2 45 -25 45 -24 0
-25 2 -25 71 0 81 11 109 43 109 42 0 47 -17 47 -147 l0 -123 95 0 95 0 0 45
c0 38 -3 45 -20 45 -19 0 -20 7 -20 95 0 60 -5 108 -14 130 -28 66 -122 86
-190 40z"/>
<path d="M1907 610 c-83 -16 -130 -74 -135 -168 -3 -56 0 -75 20 -112 42 -79
145 -113 216 -70 l32 20 0 -29 c0 -65 -90 -91 -179 -51 -24 11 -45 19 -47 17
-2 -2 -10 -19 -18 -39 l-15 -35 47 -26 c62 -33 119 -41 186 -27 114 23 166 91
166 215 0 38 3 100 7 138 5 56 9 67 24 67 16 0 19 8 19 50 l0 50 -88 0 c-53 0
-93 -5 -100 -12 -8 -8 -15 -8 -24 -1 -20 16 -68 22 -111 13z m109 -111 c26
-29 26 -119 0 -148 -42 -46 -89 -6 -88 75 2 82 47 119 88 73z"/>
<path d="M3240 565 c0 -31 4 -45 14 -45 9 0 15 -21 19 -67 11 -111 10 -123
-13 -123 -17 0 -20 -7 -20 -45 l0 -45 105 0 105 0 0 45 c0 38 -3 45 -20 45
-19 0 -20 7 -20 140 l0 140 -85 0 -85 0 0 -45z"/>
<path d="M3960 560 c0 -38 4 -50 15 -50 12 0 15 -16 16 -77 1 -105 16 -152 58
-180 47 -32 116 -31 164 2 36 24 37 24 47 5 9 -17 21 -20 80 -20 l70 0 0 45
c0 38 -3 45 -20 45 -19 0 -20 7 -20 140 l0 140 -95 0 -95 0 0 -50 c0 -47 2
-50 25 -50 24 0 25 -2 25 -68 0 -74 -17 -112 -50 -112 -26 0 -40 29 -41 82 0
24 -2 78 -6 121 l-5 77 -84 0 -84 0 0 -50z"/>
<path d="M3166 528 c3 -4 9 -8 15 -8 5 0 9 4 9 8 0 5 -7 9 -15 9 -8 0 -12 -4
-9 -9z"/>
<path d="M2235 480 c-18 -8 -17 -9 8 -9 16 -1 26 3 22 9 -3 6 -7 10 -8 9 -1 0
-11 -4 -22 -9z"/>
<path d="M2730 470 c0 -5 5 -10 11 -10 5 0 7 5 4 10 -3 6 -8 10 -11 10 -2 0
-4 -4 -4 -10z"/>
<path d="M1523 420 c0 -25 2 -35 4 -22 2 12 2 32 0 45 -2 12 -4 2 -4 -23z"/>
<path d="M2221 424 c0 -11 3 -14 6 -6 3 7 2 16 -1 19 -3 4 -6 -2 -5 -13z"/>
<path d="M2220 281 c0 -6 4 -13 10 -16 6 -3 7 1 4 9 -7 18 -14 21 -14 7z"/>
</g>
</svg>
