<svg fill="#767676" height="24" viewBox="0 0 20 20" width="24" class="r-1q142lx"><path fill-rule="evenodd" clip-rule="evenodd" d="M12.5 8.5C12.5 10.7091 10.7091 12.5 8.5 12.5C6.29086 12.5 4.5 10.7091 4.5 8.5C4.5 6.29086 6.29086 4.5 8.5 4.5C10.7091 4.5 12.5 6.29086 12.5 8.5ZM11.8226 12.8833C10.8996 13.5841 9.74835 14 8.5 14C5.46243 14 3 11.5376 3 8.5C3 5.46243 5.46243 3 8.5 3C11.5376 3 14 5.46243 14 8.5C14 9.74835 13.5841 10.8996 12.8833 11.8226L17.0303 15.9697L15.9697 17.0303L11.8226 12.8833Z"></path></svg>
